<svg width="67" height="60" viewBox="0 0 67 60" fill="none" xmlns="http://www.w3.org/2000/svg">
<g style="mix-blend-mode:soft-light" opacity="0.2">
<path fill-rule="evenodd" clip-rule="evenodd" d="M82.7252 34.9016H61.2602C59.6432 44.4287 51.3501 51.6831 41.3626 51.6831C31.3751 51.6831 23.082 44.4287 21.465 34.9016H0C1.73034 56.2303 19.5881 73 41.3626 73C63.1371 73 80.9949 56.2303 82.7252 34.9016ZM82.6859 27.6448H61.1779C59.3786 18.3421 51.191 11.3169 41.3626 11.3169C31.5342 11.3169 23.3466 18.3421 21.5473 27.6448H0.0392854C1.98408 6.53241 19.7427 -10 41.3626 -10C62.9825 -10 80.7411 6.53241 82.6859 27.6448ZM28.5457 31.5C28.5457 24.4214 34.284 18.6831 41.3626 18.6831C48.4412 18.6831 54.1795 24.4214 54.1795 31.5C54.1795 38.5786 48.4412 44.3169 41.3626 44.3169C34.284 44.3169 28.5457 38.5786 28.5457 31.5Z" fill="white"/>
</g>
</svg>
